<svg xmlns="http://www.w3.org/2000/svg" viewBox="0 0 1200 630" width="1200" height="630">
  <defs>
    <linearGradient id="bg" x1="0" y1="0" x2="1" y2="1">
      <stop offset="0%" stop-color="#1e3a8a"/>
      <stop offset="100%" stop-color="#1d4ed8"/>
    </linearGradient>
  </defs>
  <rect width="1200" height="630" fill="url(#bg)"/>
  <!-- Wave decoration -->
  <path d="M0 500 Q150 480 300 500 Q450 520 600 500 Q750 480 900 500 Q1050 520 1200 500 L1200 630 L0 630 Z" fill="#1e40af" opacity="0.5"/>
  <path d="M0 540 Q200 520 400 540 Q600 560 800 540 Q1000 520 1200 540 L1200 630 L0 630 Z" fill="#1e3a8a" opacity="0.4"/>
  <!-- Logo icon -->
  <path d="M560 180 L572 140 L600 180 L628 140 L640 180 L600 240 Z" fill="none" stroke="white" stroke-width="4" stroke-linejoin="round"/>
  <!-- Brand name -->
  <text x="600" y="310" font-family="Georgia, serif" font-size="72" font-weight="bold" fill="white" text-anchor="middle">Split Tours</text>
  <text x="600" y="370" font-family="Georgia, serif" font-size="28" fill="#93c5fd" text-anchor="middle">Guided Experiences in Split</text>
  <!-- Tagline -->
  <text x="600" y="440" font-family="Georgia, serif" font-size="22" fill="#bfdbfe" text-anchor="middle" opacity="0.8">Walking Tours · Boat Tours · Local Guides</text>
</svg>
